
        <svg xmlns="http://www.w3.org/2000/svg" xmlns:xlink="http://www.w3.org/1999/xlink" version="1.1" width="3186.9158878504672" height="947.4079872912164" viewBox="0 0 3186.9158878504672 947.4079872912164">
			
			<g transform="scale(9.345794392523365) translate(10, 10)">
				<defs id="SvgjsDefs1664"/><g id="SvgjsG1665" featureKey="symbolFeature-0" transform="matrix(0.8621150567345017,0,0,0.8621150567345017,-3.344144260675575,-68.20116769150432)" fill="#000"><path xmlns="http://www.w3.org/2000/svg" display="none" d="M0.27,56.095h19.733v22.136H43.65v12.391h49.995V62.601L81.444,72.643c-0.135,0.081-0.271,0.135-0.406,0.135  s-0.27-0.054-0.377-0.135L68.809,63.06l-0.107,0.054l3.078,6.803c0.025,0.081,0.053,0.189,0.025,0.27  c0,0.081-0.025,0.162-0.053,0.243L64.68,84.818c-0.082,0.135-0.189,0.243-0.324,0.297c-0.135,0.054-0.27,0.054-0.406,0.027  l-14.711-3.86c-0.081-0.027-0.162-0.054-0.243-0.108s-0.135-0.135-0.162-0.216L38.44,57.904c-0.081-0.135-0.081-0.297-0.027-0.459  c0.054-0.135,0.162-0.243,0.297-0.324c0.135-0.081,0.297-0.108,0.432-0.081l3.644,0.999h0.054l0.054,0.027l10.366,2.672  c0.055-0.027,0.108-0.054,0.162-0.081c0.027-0.027,0.027-0.027,0.055-0.027l6.855-13.659c0.082-0.135,0.189-0.243,0.324-0.297  c0.135-0.054,0.297-0.054,0.459,0.027c0.162,0.054,0.27,0.162,0.324,0.297l7.045,15.63l0.109-0.054V37.28  c0-0.162,0.053-0.297,0.162-0.405c0.107-0.135,0.242-0.189,0.432-0.216c0.135,0,0.297,0.054,0.432,0.162l2.889,2.375h0.027  l0.053,0.054L80.958,46c0.053-0.027,0.107-0.027,0.162-0.027h0.027l11.904-9.88c0.135-0.108,0.27-0.162,0.432-0.135h0.162V0.27  H34.311L0.27,56.095L0.27,56.095z M32.367,26.428c1.269,0,2.349,0.459,3.239,1.35c0.891,0.891,1.35,1.971,1.35,3.239  c0,1.269-0.459,2.322-1.35,3.212c-0.891,0.891-1.97,1.35-3.239,1.35c-1.269,0-2.321-0.458-3.212-1.35  c-0.891-0.891-1.35-1.943-1.35-3.212c0-1.269,0.459-2.349,1.35-3.239C30.045,26.887,31.098,26.428,32.367,26.428L32.367,26.428z"/><path xmlns="http://www.w3.org/2000/svg" display="none" stroke="#111111" stroke-width="0.5399" stroke-linecap="round" stroke-linejoin="round" stroke-miterlimit="10" d="  M32.367,26.428c-1.269,0-2.321,0.459-3.212,1.35c-0.891,0.891-1.35,1.971-1.35,3.239c0,1.269,0.459,2.322,1.35,3.212  c0.891,0.891,1.944,1.35,3.212,1.35c1.269,0,2.349-0.458,3.239-1.35c0.891-0.891,1.35-1.943,1.35-3.212  c0-1.269-0.459-2.349-1.35-3.239C34.715,26.887,33.636,26.428,32.367,26.428L32.367,26.428z M93.645,62.601v28.021H43.65V78.231  H20.003V56.095H0.27L34.311,0.27h59.334v35.687"/><path xmlns="http://www.w3.org/2000/svg" display="none" d="M0.27,200.787h19.733v22.136H43.65v12.391h28.534c-5.67-0.162-10.527-1.403-14.604-3.726  c-4.158-2.375-6.317-5.21-6.506-8.53h42.57v-28.695c-0.217,1.323-0.621,2.538-1.188,3.645c-0.027,0-0.027,0-0.027,0.027  c-0.432,0.81-0.973,1.538-1.646,2.159c-1.918,1.782-4.238,2.673-6.965,2.673s-5.021-0.891-6.938-2.673  c-1.971-1.809-2.971-4.022-2.971-6.587c0-1.457,0.324-2.808,0.945-4.021h3.969c-0.459,0.458-0.811,0.972-1.08,1.484  c-0.404,0.783-0.594,1.62-0.594,2.537c0,1.647,0.648,3.051,1.916,4.212c1.324,1.214,2.889,1.809,4.752,1.809  s3.455-0.595,4.777-1.809h-0.027c0.406-0.378,0.73-0.811,1-1.296v-0.027c0.512-0.944,0.809-1.971,0.945-3.077  c0.025-0.459,0.053-0.891,0.053-1.35c0-3.158-1.188-5.885-3.59-8.126c-2.402-2.268-5.291-3.401-8.719-3.401  c-3.43,0-6.344,1.134-8.746,3.401h0.025c-2.402,2.241-3.59,4.968-3.59,8.126c0,2.052,0.486,3.887,1.484,5.533  c0.783,1.134,1.701,2.133,2.727,2.97c1.242,0.999,2.457,2.052,3.672,3.213l0.027,0.026c0.566,0.567,1.107,1.161,1.619,1.755  c0.027,0.027,0.055,0.054,0.082,0.081c2.672,3.429,3.994,7.505,3.994,12.175c0,1.484-0.135,2.915-0.377,4.265h-3.32  c0.297-1.35,0.459-2.78,0.459-4.265c0-3.888-1.08-7.262-3.268-10.123c-0.027-0.027-0.027-0.055-0.053-0.081  c-0.459-0.513-0.918-0.999-1.404-1.484l-0.027-0.027c-1.133-1.08-2.268-2.079-3.428-3.023h-0.027  c-1.297-1.053-2.43-2.295-3.402-3.726c-0.025-0.026-0.053-0.054-0.053-0.081c-1.297-2.133-1.943-4.535-1.943-7.207  c0-4.104,1.537-7.586,4.588-10.475c3.023-2.861,6.668-4.292,10.961-4.292c4.291,0,7.936,1.431,10.959,4.292H89.19  c2.512,2.349,3.996,5.075,4.455,8.233v-44.865H34.311L0.27,200.787L0.27,200.787z M32.367,171.12c1.269,0,2.349,0.459,3.239,1.35  c0.891,0.891,1.35,1.971,1.35,3.239c0,1.27-0.459,2.322-1.35,3.213c-0.891,0.891-1.97,1.35-3.239,1.35  c-1.269,0-2.321-0.459-3.212-1.35c-0.891-0.891-1.35-1.943-1.35-3.213c0-1.269,0.459-2.349,1.35-3.239  C30.045,171.579,31.098,171.12,32.367,171.12L32.367,171.12z"/><path xmlns="http://www.w3.org/2000/svg" d="M77.467,150.049c0.836,0,1.619,0.082,2.402,0.244v-20.84h17.385V81.429H37.918L3.879,137.254h19.732v22.136h23.646v12.391  h49.996v-28.29h-8.963v18.302c-0.027,0.188-0.027,0.405-0.055,0.595c-0.297,2.375-1.35,4.426-3.104,6.182  c-2.105,2.132-4.67,3.186-7.666,3.186c-2.998,0-5.563-1.054-7.695-3.186c-2.105-2.105-3.158-4.67-3.158-7.667  s1.053-5.562,3.158-7.693C71.905,151.102,74.469,150.049,77.467,150.049L77.467,150.049z M32.762,108.937  c0.893-0.892,1.945-1.35,3.213-1.35c1.27,0,2.35,0.458,3.24,1.35c0.891,0.891,1.35,1.971,1.35,3.239c0,1.27-0.459,2.322-1.35,3.213  s-1.971,1.35-3.24,1.35c-1.268,0-2.32-0.459-3.213-1.35c-0.891-0.891-1.35-1.943-1.35-3.213  C31.413,110.908,31.872,109.828,32.762,108.937L32.762,108.937z"/></g><g id="SvgjsG1666" featureKey="nameFeature-0" transform="matrix(2.825439284954913,0,0,2.825439284954913,95.80119162137375,-32.77509678329654)" fill="#000"><path d="M1.84 37.08 c1.76 1.64 5.4 3.32 9.04 3.32 c5.6 0 9.16 -2.88 9.16 -7.4 c0 -3.68 -1.76 -5.84 -7.84 -9.28 c-4.64 -2.68 -5.76 -3.56 -5.76 -5.32 c0 -1.88 1.76 -3.36 4.72 -3.36 c1.72 0 4 0.76 5.32 1.6 l1.92 -2.88 c-1.88 -1.24 -4.84 -2.16 -7.2 -2.16 c-5.16 0 -8.6 2.96 -8.6 6.84 c0 3.44 1.72 5.16 7 8.04 c4.68 2.56 6.6 4.44 6.6 6.48 c0 2.4 -2.08 3.84 -5.32 3.84 c-2.8 0 -5.6 -1.32 -7 -2.6 z M18.526 40 l0 -28 l3.6 0 l0 28 l-3.6 0 z M42.532000000000004 22.12 c0 4.52 -2.12 8.4 -6.48 9.68 l6.04 8.2 l-4.32 0 l-5.72 -7.76 l-6.28 0 l0 7.76 l-3.6 0 l0 -28 l10.56 0 c6.6 0 9.8 4.56 9.8 10.12 z M25.772000000000002 15.36 l0 13.48 l6.8 0 c4.52 0 6.36 -3.32 6.36 -6.72 s-1.84 -6.76 -6.36 -6.76 l-6.8 0 z M58.17800000000001 36.56 l0.24 3.44 l-17.04 0 l0 -28 l16.24 0 l0.28 3.44 l-12.92 0 l0 6.84 l8.76 0 l0 3.44 l-8.76 0 l0 10.84 l13.2 0 z M76.10400000000001 12 l3.6 0 l0 28.4 l-0.44 0 l-18.8 -19.96 l0 19.56 l-3.56 0 l0 -28.4 l0.4 0 l18.8 19.96 l0 -19.56 z"/></g>
			</g>
		</svg>
	