<svg width="28" height="28" viewBox="0 0 28 28" fill="none" xmlns="http://www.w3.org/2000/svg">
<g clip-path="url(#clip0_26_2003)">
<path d="M0 0L15.12 15.12L24.1325 6.1075L18.095 0H16.52L19.775 3.255C20.335 3.815 20.16 4.36188 19.88 5.145C19.7684 5.48188 19.6525 5.77063 19.6525 6.1075C19.6525 6.44438 19.8166 6.83594 19.985 7.2275C20.265 7.84438 20.4356 8.35188 20.2125 8.575L16.8 11.9875C16.6884 12.0991 16.2881 11.9241 16.065 11.8125C15.785 11.7009 15.505 11.585 15.225 11.585C15.0019 11.585 14.7875 11.7031 14.5075 11.76C13.9475 11.9831 13.6675 12.04 13.3875 11.76L3.36 1.7325C3.02312 1.39563 3.13687 1.1725 3.36 0.6125C3.41687 0.389375 3.465 0.223125 3.465 0H2.345C2.345 0.0568753 2.2925 0.115937 2.2925 0.2275C2.23563 0.284375 2.19187 0.448437 2.135 0.56L1.575 0H0ZM8.785 0C6.99344 1.96 6.895 4.8125 8.575 6.4925C9.35812 7.27563 10.4169 7.67813 11.48 7.735C12.8231 7.735 14.1116 7.16844 15.12 6.16C16.9116 4.36844 17.1959 1.79156 15.9075 0H14.3325C14.5009 0.0568753 14.6234 0.168437 14.735 0.28C16.0234 1.56844 15.8966 3.80844 14.385 5.32C13.6019 6.10313 12.5409 6.545 11.5325 6.545C10.6925 6.545 9.905 6.2125 9.345 5.6525C8.05656 4.36406 8.18344 2.12406 9.695 0.6125C9.975 0.389375 10.255 0.168437 10.535 0H8.785ZM2.975 4.655L9.52 15.12L11.935 13.615L9.905 11.585C9.79344 11.585 9.68406 11.5981 9.5725 11.655C8.95562 11.7666 8.67562 11.7666 8.4525 11.375L6.44 8.1725L2.975 4.655ZM21.175 4.7075L22.575 6.1075L21.2275 7.455C21.1159 7.175 21.0044 6.94313 20.9475 6.72C20.8359 6.49688 20.72 6.16438 20.72 6.1075C20.72 6.05063 20.8381 5.76844 20.895 5.6C21.0066 5.37688 21.1181 5.04438 21.175 4.7075ZM16.765 6.3875C16.3034 6.3875 15.8419 6.55813 15.505 6.895C15.1681 7.23188 15.015 7.67156 15.015 8.12C15.0719 8.62313 15.2381 9.07812 15.575 9.415C15.9119 9.75187 16.3516 9.905 16.8 9.905C17.2484 9.905 17.6881 9.75187 18.025 9.415C18.6966 8.74344 18.6966 7.62344 18.025 6.895C17.6881 6.55813 17.2266 6.3875 16.765 6.3875ZM16.8 7.5075C16.9684 7.5075 17.1434 7.55344 17.255 7.665C17.535 7.945 17.535 8.3475 17.255 8.6275C17.0319 8.85063 16.5725 8.85063 16.2925 8.6275C16.1809 8.51594 16.135 8.34094 16.135 8.1725C16.1919 7.94938 16.2334 7.77656 16.345 7.665C16.4566 7.55344 16.6316 7.5075 16.8 7.5075ZM10.08 12.6525C10.1369 12.6525 10.3009 12.8231 10.4125 12.88C10.4694 12.9369 10.5831 12.9981 10.64 13.055L9.8525 13.4925L9.415 12.775C9.58344 12.775 9.68844 12.705 9.8 12.705C9.91156 12.705 10.08 12.6525 10.08 12.6525ZM15.0675 12.6525C15.1244 12.6525 15.3409 12.7706 15.4525 12.8275C15.5094 12.8844 15.6209 12.8756 15.7325 12.9325L15.12 13.545L14.455 12.88C14.5666 12.8231 14.7306 12.775 14.7875 12.775C14.8991 12.7181 15.0106 12.6525 15.0675 12.6525ZM8.05 15.6625C7.64969 15.6931 7.22969 15.8287 6.93 16.1875C6.82719 16.3122 6.78781 16.4675 6.7375 16.625C6.0375 16.3144 5.31781 16.1459 4.7075 16.2575C4.70094 16.2575 4.69656 16.2575 4.69 16.2575C4.21531 16.3669 3.79312 16.6491 3.605 17.0625C3.55469 17.1719 3.60938 17.2987 3.5875 17.4125C2.96844 17.1478 2.39313 16.9794 1.925 16.9925C1.26219 17.01 0.748125 17.3141 0.455 17.6925C0.0721874 18.1891 -0.013125 18.8519 0.2275 19.4075C0.46375 19.9566 0.931875 20.4291 1.5575 20.8775C1.55969 20.8797 1.57281 20.8928 1.575 20.895C1.81344 21.0766 2.3625 21.4506 3.15 21.98C3.94625 22.5159 4.95469 23.1831 5.9675 23.8525C7.99312 25.1912 10.0253 26.53 10.57 26.8625C10.5766 26.8625 10.5809 26.8625 10.5875 26.8625C11.1278 27.1709 11.7337 27.6566 12.5825 27.895C13.4312 28.1334 14.4834 28.07 15.8025 27.44C15.8091 27.44 15.8134 27.44 15.82 27.44C16.6316 27.0331 19.8144 25.3575 20.8775 24.7975C21.3741 24.5372 21.6409 24.4562 21.84 24.465C22.0391 24.4737 22.2556 24.5722 22.645 24.8325L24.1675 25.83C24.3316 25.97 24.5634 26.005 24.7603 25.9153C24.9594 25.8256 25.0884 25.6309 25.0906 25.4144C25.095 25.1978 24.9747 24.9988 24.78 24.9025L23.275 23.8875C22.8244 23.5878 22.3934 23.3647 21.8925 23.345C21.3916 23.3253 20.9191 23.5003 20.3525 23.8C19.2937 24.3578 16.1022 26.0378 15.33 26.425C14.1859 26.9719 13.4728 26.9762 12.88 26.81C12.2872 26.6437 11.7819 26.2456 11.1475 25.8825V25.9C10.6837 25.6156 8.60125 24.2616 6.58 22.925C5.56937 22.2578 4.57406 21.5863 3.78 21.0525C2.98594 20.5187 2.37125 20.1031 2.24 20.0025C2.23344 19.9959 2.22906 19.9916 2.2225 19.985C1.68219 19.6 1.36938 19.2259 1.26 18.97C1.15063 18.7141 1.17031 18.6069 1.3475 18.375C1.44594 18.2525 1.59469 18.1234 1.96 18.1125C2.28375 18.1038 2.80437 18.2306 3.5 18.585C3.54375 18.6419 3.59625 18.6878 3.6575 18.725L8.7675 22.1375C8.80906 22.1725 8.85719 22.2031 8.9075 22.225C9.02125 22.3453 9.135 22.4547 9.275 22.54C9.79781 22.8528 10.4409 22.96 11.2 22.96H14.455C16.1044 22.96 18.0775 22.3825 18.0775 22.3825C18.3772 22.295 18.55 21.9822 18.4625 21.6825C18.375 21.3828 18.0622 21.21 17.7625 21.2975C17.7625 21.2975 15.8287 21.84 14.455 21.84H11.2C10.5591 21.84 10.0822 21.7262 9.835 21.5775C9.58781 21.4288 9.52 21.3106 9.52 21C9.52 20.7156 9.59219 20.5931 9.835 20.44C10.0778 20.2869 10.5372 20.16 11.2 20.16C11.9656 20.16 12.9544 19.9894 13.8775 19.7575C13.8884 19.7553 13.9016 19.7597 13.9125 19.7575C14.0547 19.775 14.1991 19.7378 14.315 19.6525C15.0522 19.4513 15.6887 19.215 16.1175 18.97C16.1284 18.9656 16.1416 18.9591 16.1525 18.9525C17.4125 18.165 17.3184 16.8 20.4925 16.8C21.9209 16.8 22.3256 17.0778 23.205 17.43C24.6028 17.9681 27.2475 19.2675 27.2475 19.2675C27.5275 19.4031 27.8644 19.285 28 19.005C28.1356 18.725 28.0175 18.3881 27.7375 18.2525C27.7375 18.2525 25.1212 16.9794 23.6075 16.3975C22.8069 16.0781 22.0872 15.68 20.4925 15.68C16.9684 15.68 16.1066 17.6378 15.575 17.99C15.5706 17.9922 15.5619 18.0053 15.5575 18.0075C15.3256 18.1366 14.7219 18.3553 14.035 18.55C13.6872 18.3247 11.1934 16.7125 10.29 16.205C9.68406 15.8681 8.85062 15.5991 8.05 15.6625ZM8.1375 16.7825C8.58156 16.7475 9.345 16.9619 9.7475 17.185V17.1675C10.29 17.4716 11.5434 18.2766 12.5125 18.9C12.0072 18.9875 11.5391 19.04 11.2 19.04C10.9156 19.04 10.6597 19.0553 10.4125 19.0925L7.77 17.29C7.71531 17.01 7.75687 16.9422 7.7875 16.905C7.82031 16.8656 7.91437 16.8 8.1375 16.7825ZM4.9175 17.3425C4.92188 17.3425 4.93062 17.3425 4.935 17.3425C5.26969 17.2878 5.93687 17.4081 6.58 17.745C6.62375 17.8456 6.69812 17.9309 6.79 17.99L9.135 19.5825C8.80031 19.8319 8.55094 20.1775 8.4525 20.58L4.62 18.025C4.57844 17.7734 4.58938 17.6006 4.62 17.535C4.65281 17.4628 4.69219 17.3972 4.9175 17.3425Z" fill="#343434"/>
</g>
<defs>
<clipPath id="clip0_26_2003">
<rect width="28" height="28" fill="white"/>
</clipPath>
</defs>
</svg>
