<svg width="28" height="28" viewBox="0 0 28 28" fill="none" xmlns="http://www.w3.org/2000/svg">
<path d="M12.005 0.563407C11.2458 0.586082 10.5122 0.981514 10.0942 1.67247L9.94656 1.91747C9.73569 2.26561 9.36414 2.48003 8.95781 2.48841H8.95672L8.67015 2.49497C7.44048 2.52058 6.43877 3.52157 6.41375 4.75138L6.40719 5.03794C6.39881 5.44428 6.18373 5.8166 5.83625 6.02669L5.59125 6.17544C4.53905 6.81237 4.17166 8.18079 4.76437 9.25872H4.76547L4.90328 9.51028C5.09936 9.86628 5.09936 10.2962 4.90328 10.6522L4.76547 10.9026C4.17285 11.9804 4.53946 13.349 5.59234 13.9859L5.83734 14.1336C6.18548 14.3444 6.3999 14.716 6.40828 15.1223V15.1234L6.41484 15.41C6.43556 16.4047 7.09876 17.2405 8.00078 17.5406L5.0914 23.845C5.05193 23.9303 5.03458 24.0243 5.04096 24.1181C5.04734 24.2119 5.07725 24.3026 5.12792 24.3818C5.1786 24.4611 5.2484 24.5263 5.33091 24.5714C5.41341 24.6165 5.50595 24.6402 5.6 24.6401H9.25094L11.3225 27.2301C11.3828 27.3054 11.4614 27.3639 11.5509 27.3998C11.6404 27.4358 11.7376 27.448 11.8332 27.4354C11.9288 27.4227 12.0195 27.3856 12.0966 27.3276C12.1736 27.2696 12.2344 27.1927 12.273 27.1043L14.0175 23.1176L15.762 27.1043C15.8006 27.1927 15.8614 27.2696 15.9384 27.3276C16.0155 27.3856 16.1062 27.4227 16.2018 27.4354C16.2974 27.448 16.3946 27.4358 16.4841 27.3998C16.5736 27.3639 16.6522 27.3054 16.7125 27.2301L18.7841 24.6401H22.435C22.529 24.6402 22.6216 24.6165 22.7041 24.5714C22.7866 24.5263 22.8564 24.4611 22.9071 24.3818C22.9577 24.3026 22.9877 24.2119 22.994 24.1181C23.0004 24.0243 22.9831 23.9303 22.9436 23.845L20.0298 17.5308C20.9167 17.2222 21.5658 16.3938 21.5862 15.41V15.4089L21.5928 15.1234V15.1223C21.6012 14.716 21.8163 14.3437 22.1637 14.1336L22.4098 13.9848C23.4621 13.3479 23.8283 11.9806 23.2356 10.9026L23.2345 10.9015L23.0945 10.6489C22.8996 10.2933 22.8999 9.86446 23.0956 9.50919L23.2345 9.25872V9.25763C23.8269 8.18034 23.4606 6.81268 22.4087 6.17544L22.4077 6.17435L22.1627 6.02669C21.8145 5.81593 21.6001 5.44427 21.5917 5.03794V5.03684L21.5852 4.75138V4.75028C21.5595 3.52061 20.5586 2.5189 19.3287 2.49388L19.0422 2.48731C18.6358 2.47894 18.2635 2.26386 18.0534 1.91638L17.9047 1.67138C17.2678 0.618491 15.8992 0.251882 14.8214 0.844501V0.845595L14.5698 0.983407C14.2138 1.17949 13.784 1.17949 13.428 0.983407L13.1775 0.845595C12.9081 0.69744 12.6207 0.609094 12.3309 0.576532C12.2223 0.564322 12.1135 0.560168 12.005 0.563407ZM11.9766 1.68013C12.198 1.66396 12.4276 1.71082 12.6383 1.82669L12.8877 1.9645C13.5789 2.34522 14.42 2.34522 15.1112 1.9645L15.3617 1.82559V1.82669C15.9236 1.51771 16.6146 1.70235 16.9466 2.25106L17.0953 2.49606C17.5034 3.17042 18.2301 3.59069 19.0181 3.60731L19.3058 3.61388C19.9471 3.62693 20.4532 4.13191 20.4662 4.77325V4.77434L20.4717 5.06091C20.488 5.84962 20.9085 6.57632 21.583 6.98481L21.828 7.13356C22.3763 7.46528 22.5616 8.15558 22.2534 8.71731L22.1145 8.96888C21.7338 9.66008 21.7338 10.5002 22.1145 11.1914L22.1156 11.1925V11.1936L22.2545 11.4418C22.5634 12.0036 22.3773 12.6948 21.8291 13.0267L21.5841 13.1754C20.909 13.5836 20.4891 14.3106 20.4728 15.0993L20.4673 15.3859V15.387C20.4543 16.0283 19.9482 16.5333 19.3069 16.5464L19.0192 16.5529C18.2309 16.5696 17.5047 16.989 17.0964 17.6631V17.6642L16.9477 17.9092C16.6157 18.4579 15.9247 18.6425 15.3628 18.3336V18.3347L15.1123 18.1958C14.4211 17.815 13.58 17.815 12.8887 18.1958L12.6383 18.3347V18.3336C12.0765 18.6425 11.3853 18.4574 11.0534 17.9092L10.9047 17.6642C10.4966 16.9898 9.76989 16.5696 8.98187 16.5529H8.98078L8.69422 16.5464C8.05288 16.5333 7.5468 16.0283 7.53375 15.387V15.3859L7.52828 15.0993C7.51202 14.3106 7.09145 13.5839 6.41703 13.1754L6.17203 13.0267C5.62333 12.6947 5.43758 12.0038 5.74656 11.4418L5.88437 11.1925V11.1914C6.26456 10.5004 6.26491 9.65976 5.88437 8.96888L5.74547 8.71841H5.74656C5.43767 8.15666 5.62268 7.46543 6.17094 7.13356L6.41594 6.98481C7.0903 6.57677 7.51057 5.85002 7.52718 5.062V5.06091L7.53375 4.77434C7.5468 4.13301 8.05178 3.62693 8.69312 3.61388H8.69422L8.98078 3.60841C9.76949 3.59215 10.4962 3.17158 10.9047 2.49716L11.0534 2.25216C11.2194 1.9778 11.4744 1.79351 11.7589 1.71731C11.83 1.69826 11.9027 1.68551 11.9766 1.68013ZM18.8727 17.6981L21.5589 23.5201H18.515C18.431 23.5201 18.3481 23.5389 18.2723 23.5753C18.1966 23.6116 18.13 23.6646 18.0775 23.7301L16.4161 25.8061L14.6289 21.7187L15.5717 19.564C16.4717 19.7046 17.4101 19.3083 17.9058 18.4889L18.0545 18.2439C18.235 17.9458 18.5356 17.7548 18.8727 17.6981ZM9.16015 17.7025C9.48444 17.7661 9.77232 17.9557 9.94656 18.2439L10.0953 18.4889C10.7322 19.5411 12.1007 19.9085 13.1786 19.3158V19.3147L13.4302 19.1768C13.7719 18.9886 14.18 18.9862 14.5272 19.1593L11.6189 25.8061L9.9575 23.7301C9.90499 23.6646 9.83841 23.6116 9.76267 23.5753C9.68694 23.5389 9.604 23.5201 9.52 23.5201H6.47609L9.16015 17.7025Z" fill="#343434"/>
</svg>
