<svg width="28" height="28" viewBox="0 0 28 28" fill="none" xmlns="http://www.w3.org/2000/svg">
<path d="M1.5925 7.28003C0.719687 7.28003 0 7.99972 0 8.87253V23.52C0 24.4497 0.750313 25.2 1.68 25.2H3.9725C4.23938 26.7882 5.61969 28 7.28 28C8.94031 28 10.3206 26.7882 10.5875 25.2H15.7675C16.1809 25.2 16.5506 25.025 16.835 24.7625C17.1259 25.0185 17.4978 25.1957 17.92 25.2H18.5325C18.7994 26.7882 20.1797 28 21.84 28C23.6884 28 25.2 26.4885 25.2 24.64C25.2 22.7916 23.6884 21.28 21.84 21.28C20.1797 21.28 18.7994 22.4919 18.5325 24.08H17.92C17.815 24.08 17.6553 24.0078 17.535 23.8875C17.4147 23.7672 17.36 23.6228 17.36 23.52V12.88C17.36 12.67 17.71 12.32 17.92 12.32H22.4C22.8397 12.32 23.4587 12.7903 23.8875 13.3C23.8919 13.3066 23.9006 13.311 23.905 13.3175L23.9925 13.44H21.28C20.3875 13.44 19.6 14.1619 19.6 15.12V17.36C19.6 17.826 19.81 18.235 20.1075 18.5325C20.405 18.83 20.8141 19.04 21.28 19.04H26.88V23.52C26.88 23.73 26.53 24.08 26.32 24.08H25.2V25.2H26.32C27.2497 25.2 28 24.4497 28 23.52V18.13C28 16.8482 27.1075 15.715 27.1075 15.715H27.09L24.78 12.635V12.6175L24.7625 12.6C24.2463 11.9766 23.4719 11.2 22.4 11.2H17.92C17.7209 11.2 17.5372 11.2416 17.36 11.305V8.90753C17.36 8.04784 16.6819 7.28003 15.785 7.28003H1.5925ZM1.5925 8.40003H15.785C16.0256 8.40003 16.24 8.6319 16.24 8.90753V23.6075C16.24 23.87 16.0322 24.08 15.7675 24.08H10.5875C10.3206 22.4919 8.94031 21.28 7.28 21.28C5.61969 21.28 4.23938 22.4919 3.9725 24.08H1.68C1.47 24.08 1.12 23.7278 1.12 23.52V8.87253C1.12 8.61003 1.32563 8.40003 1.5925 8.40003ZM21.28 14.56H24.8325L26.1975 16.38C26.1975 16.38 26.705 17.2485 26.81 17.92H21.28C21.1859 17.92 21.035 17.85 20.9125 17.7275C20.79 17.605 20.72 17.4541 20.72 17.36V15.12C20.72 14.8378 21.0525 14.56 21.28 14.56ZM7.28 22.4C8.52469 22.4 9.52 23.3953 9.52 24.64C9.52 25.8847 8.52469 26.88 7.28 26.88C6.03531 26.88 5.04 25.8847 5.04 24.64C5.04 23.3953 6.03531 22.4 7.28 22.4ZM21.84 22.4C23.0847 22.4 24.08 23.3953 24.08 24.64C24.08 25.8847 23.0847 26.88 21.84 26.88C20.5953 26.88 19.6 25.8847 19.6 24.64C19.6 23.3953 20.5953 22.4 21.84 22.4Z" fill="#343434"/>
</svg>
