<svg width="21" height="21" viewBox="0 0 21 21" fill="none" xmlns="http://www.w3.org/2000/svg">
<g clip-path="url(#clip0_18_993)">
<path fill-rule="evenodd" clip-rule="evenodd" d="M14.7379 5.72862C13.6538 4.69463 12.2069 4.13134 10.71 4.15449C7.9707 4.15449 5.64423 6.00253 4.81471 8.49103V8.49109C4.37488 9.79515 4.37488 11.2072 4.81471 12.5113H4.81856C5.65193 14.9959 7.97454 16.844 10.7138 16.844C12.1279 16.844 13.3418 16.4823 14.2827 15.8435V15.8409C15.39 15.1079 16.1462 13.9543 16.3815 12.6502H10.71V8.60685H20.6139C20.7374 9.30904 20.7953 10.0267 20.7953 10.7404C20.7953 13.934 19.6539 16.6341 17.668 18.4628L17.6701 18.4644C15.9301 20.0694 13.5419 20.9993 10.71 20.9993C6.73993 20.9993 3.10939 18.7615 1.32692 15.2159V15.2159C-0.16232 12.2489 -0.162316 8.75344 1.32693 5.78652H1.32695L1.32692 5.78649C3.10939 2.23698 6.73993 -0.000757261 10.71 -0.000757261C13.3181 -0.0316226 15.8375 0.948352 17.7357 2.73082L14.7379 5.72862Z" fill="#343434"/>
</g>
<defs>
<clipPath id="clip0_18_993">
<rect width="21" height="21" fill="white"/>
</clipPath>
</defs>
</svg>
