<svg xmlns="http://www.w3.org/2000/svg" xmlns:xlink="http://www.w3.org/1999/xlink" xmlns:a="http://ns.adobe.com/AdobeSVGViewerExtensions/3.0/" version="1.1" x="0px" y="0px" width="114px" height="82px" viewBox="0 0 114 82" overflow="visible" enable-background="new 0 0 114 82" xml:space="preserve">
<defs>
</defs>
<linearGradient id="SVGID_1_" gradientUnits="userSpaceOnUse" x1="57" y1="0" x2="57" y2="82">
	<stop offset="0" style="stop-color:#A10E1C"/>
	<stop offset="0.2554" style="stop-color:#9D0D1B"/>
	<stop offset="0.5207" style="stop-color:#900A19"/>
	<stop offset="0.7897" style="stop-color:#7C0516"/>
	<stop offset="1" style="stop-color:#660012"/>
</linearGradient>
<rect fill-rule="evenodd" clip-rule="evenodd" fill="url(#SVGID_1_)" width="114" height="82"/>
<path fill-rule="evenodd" clip-rule="evenodd" fill="#FFFFFF" d="M95.78 47.34h0.09c0.26 0 0.46-0.07 0.46-0.36 c0-0.24-0.14-0.36-0.37-0.36l-0.1 0.01c-0.09 0-0.08 0.1-0.08 0.17V47.34z M95.46 46.75c0-0.11-0.01-0.13-0.13-0.13h-0.07v-0.09 h0.71c0.15 0 0.36-0.01 0.5 0.07c0.11 0.1 0.2 0.2 0.2 0.34c0 0.26-0.21 0.41-0.45 0.45c0.19 0 0.3 0.2 0.4 0.4 c0.04 0.1 0.1 0.2 0.1 0.27c0.03 0.1 0.1 0.1 0.1 0.07v0.08h-0.31c-0.06-0.01-0.1-0.01-0.14-0.07 c-0.1-0.11-0.24-0.53-0.33-0.62c-0.06-0.07-0.14-0.07-0.22-0.07h-0.07v0.54c0.01 0.1 0 0.1 0.1 0.13l0.08 0.01v0.08h-0.72 v-0.08h0.06c0.11-0.01 0.14-0.01 0.14-0.12V46.75z M97.32 47.41c0-0.73-0.61-1.32-1.35-1.32c-0.74 0-1.34 0.59-1.34 1.3 c0 0.7 0.6 1.3 1.3 1.31C96.71 48.7 97.3 48.1 97.3 47.41z M94.37 47.41c0-0.86 0.72-1.56 1.6-1.56c0.88 0 1.6 0.7 1.6 1.6 c0 0.86-0.72 1.56-1.6 1.56C95.09 49 94.4 48.3 94.4 47.41z"/>
<path fill-rule="evenodd" clip-rule="evenodd" fill="#FFFFFF" d="M77.43 32c-0.65 0-2.17 0.38-2.17 3.87v1.15 c0 3.5 1.5 3.9 2.2 3.87c0.65 0 2.17-0.38 2.17-3.87v-1.15C79.6 32.4 78.1 32 77.4 32z M39.91 32.4 c-1 0.01-1.83 0.31-2.53 0.92c-0.32 0.28-0.75 0.9-0.93 1.34c-0.33 0.82-0.52 1.79-0.52 2.65v0.11c0 1 0 1.8 0.5 2.8 c0.48 0.9 1.3 1 1.6 1c1.07 0 1.85-0.87 1.85-2.06L39.91 32.43z M53.78 48.2c1.28-1.11 2.12-2.8 2.05-4.88 c0-0.04-0.03-0.08-0.08-0.08l-0.12 0.04c-0.52 0.22-1.32 0.37-2.04 0.37c-1.33 0-2.59-0.46-3.58-1.29 c-1.08 1.09-2.57 1.71-4.13 1.71c-1.25 0-2.42-0.38-3.41-1.09c-1.07 1.21-2.63 1.9-4.43 1.96c-1.21 0.03-2.48-0.32-3.46-0.94 c-0.95 1.14-2.24 1.82-3.83 2.03c-4.01 0.51-6.21 1.04-8.59 2.87l-0.23 0.18l-0.71-0.77l0.25-0.2c2.41-1.87 2.73-3.97 2.73-5.78 l0.01-15.46c-1.61 0.07-3.32 0.12-4.85 0.13c-0.73 0-1.35 0.59-1.35 1.36c0 0.7 0.5 1.3 1.6 1.42c-0.84 0.3-1.82 0.31-2.51 0.2 c-0.95-0.19-1.87-0.62-2.5-1.48c-0.6-0.81-0.71-2-0.45-2.92c0.44-1.48 1.99-2.49 3.76-2.54c4.55 0 9.38-0.29 13.99-0.89 c2.65-0.34 5.27-0.77 7.77-1.32c0.06 1.29-0.25 2.31-0.86 3.1c-0.7 0.91-1.8 1.49-3.21 1.73c-2.35 0.4-4.8 0.72-7.27 0.9 l-0.01 14.35c0 0.9 0.8 1.7 1.7 1.66s1.74-0.75 1.74-1.66v-3.18c0-1.68 0.28-3.32 0.77-4.51c1.21-2.94 3.82-4.57 7.34-4.57h0.34 h0.34c1.06 0 2.08-0.02 3.03-0.34l0.42-0.13L44.1 38.4c0 1.1 0.9 1.9 2 1.93s2.03-0.86 2.03-1.93v-7.24 c0-0.35-0.32-0.64-0.7-0.64c-0.21 0-0.47 0.11-0.6 0.28c-0.12-1.55 1.2-2.77 2.73-2.77c1.51 0 2.8 1.2 2.8 2.61l-0.01 7.6 c0 0.9 0.8 1.7 1.8 1.66c0.96 0 1.74-0.75 1.74-1.66v-9.86h4.18v9.78c0 1 0.9 1.8 1.9 1.82c1.05 0 1.91-0.82 1.91-1.82V21.83 c0-0.56-0.47-1.02-1.06-1.02h-0.31v-1L68 19.82v19.19c0 0.8 0.7 1.5 1.5 1.47s1.54-0.66 1.54-1.47l0.01-3.15 c0-4.6 2.6-7.82 6.34-7.82c1.48 0 2.7 0.5 4.2 1.69l0.48 0.4c0.83 0.7 1.4 1.2 2.2 1.24c0.86 0 1.43-0.38 2.19-1.43 c0.57-0.77 1.34-1.18 2.25-1.18c0.77 0 1.4 0.3 2 0.89C91.47 29.2 92.3 29 93.2 29c1.27 0 2.5 0.5 3.5 1.38l0.18 0.2 l-1.91 2.99c-0.56-0.5-1.23-0.77-1.78-0.77c-1.28 0-2.31 0.98-2.31 2.2l0.01 7.6c0 1.1 0.3 2.6 1.9 3.57l0.2 0.13l-0.34 1 l-0.31-0.13c-2.39-0.98-4.91-1.61-7.49-1.85l-0.28-0.02v-0.96l0.3-0.01c1.15-0.02 1.8-0.67 1.8-1.79l0.02-6.61 c0-0.75-0.64-1.35-1.43-1.35c-0.78 0-1.42 0.6-1.42 1.35l-0.01 1.18c0 4.61-2.61 7.82-6.35 7.82c-1.74 0-3.25-0.67-4.39-1.96 c-1.02 0.84-2.3 1.3-3.63 1.3c-1.6 0-3.09-0.64-4.15-1.76c-0.97 0.83-2.21 1.28-3.52 1.28c-0.6 0-1.18-0.09-1.74-0.28 c-0.01 2.05-0.55 3.68-1.49 5.05c-1.19 1.73-2.93 2.63-5.03 2.63c-1.41 0.01-3.35-0.66-4.21-2.16c0.53 0.2 1.1 0.4 1.7 0.4 C51.99 49.3 53 48.9 53.8 48.2z"/>
<path fill="#FFFFFF" d="M24.668 56.389c0-0.352 0.053-0.659 0.16-0.921s0.258-0.486 0.455-0.671s0.407-0.318 0.629-0.4 c0.301-0.109 0.643-0.164 1.028-0.164c0.363 0 0.7 0 0.9 0.135c0.254 0.1 0.5 0.2 0.7 0.388s0.314 0.3 0.4 0.5 c0.123 0.3 0.2 0.6 0.2 0.943c0 0.697-0.203 1.247-0.607 1.649c-0.405 0.402-0.962 0.604-1.67 0.6 c-0.359 0-0.67-0.05-0.934-0.149c-0.263-0.1-0.478-0.231-0.644-0.394s-0.292-0.341-0.38-0.535 C24.735 57.1 24.7 56.8 24.7 56.389z M25.57 56.243c0 0.6 0.1 1.1 0.3 1.408c0.231 0.3 0.6 0.5 1 0.5 c0.237 0 0.454-0.058 0.648-0.174c0.195-0.116 0.347-0.31 0.457-0.582s0.165-0.605 0.165-1.002c0-0.248-0.025-0.487-0.076-0.716 c-0.05-0.229-0.129-0.43-0.235-0.601s-0.239-0.302-0.4-0.394s-0.37-0.138-0.626-0.138c-0.231 0-0.436 0.044-0.613 0.1 c-0.132 0.066-0.25 0.166-0.354 0.299c-0.104 0.133-0.185 0.307-0.243 0.521C25.599 55.7 25.6 56 25.6 56.243z M25.658 59.295l-0.064-0.19c0.052-0.049 0.137-0.113 0.254-0.193c0.226-0.156 0.373-0.254 0.441-0.293 c0.068-0.039 0.157-0.08 0.266-0.123c0.222 0 0.5 0.1 1 0.281c0.296 0.1 0.5 0.2 0.5 0.2 c0.115 0 0.2 0.1 0.3 0.082c0.075 0 0.1 0 0.2 0.021c0.053 0 0.104-0.005 0.153-0.015 c0.033-0.006 0.064-0.015 0.094-0.026l0.241-0.103v0.223c-0.076 0.043-0.221 0.13-0.435 0.261c-0.083 0.053-0.145 0.096-0.188 0.1 c-0.045 0-0.143-0.013-0.294-0.04c-0.197-0.035-0.438-0.095-0.724-0.181c-0.388-0.115-0.652-0.189-0.794-0.222 c-0.193-0.041-0.322-0.062-0.388-0.062c-0.057 0-0.111 0.011-0.164 0.032C26.003 59.1 25.9 59.2 25.7 59.295z"/>
<path fill="#FFFFFF" d="M30.249 54.546v-0.243l0.952 0.021l0.396-0.007l0.396-0.01l0.108-0.003v0.243 c-0.211 0-0.345 0.019-0.401 0.056c-0.029 0.018-0.049 0.052-0.059 0.103c-0.027 0.121-0.041 0.388-0.041 0.8v0.68l0.003 0.3 c0 0.4 0 0.6 0 0.662c0.018 0.2 0.1 0.3 0.1 0.444s0.188 0.2 0.3 0.272s0.348 0.1 0.6 0.1 c0.271 0 0.488-0.046 0.649-0.139s0.276-0.213 0.344-0.362s0.103-0.431 0.103-0.847v-0.598c0-0.516-0.001-0.83-0.003-0.943 c-0.006-0.246-0.02-0.395-0.041-0.445c-0.014-0.031-0.036-0.055-0.067-0.07c-0.064-0.033-0.205-0.053-0.422-0.059v-0.243 c0.354 0 0.6 0 0.6 0.021c0.018 0 0.044-0.001 0.079-0.003l0.65-0.018v0.243c-0.182 0-0.296 0.015-0.343 0 c-0.023 0.016-0.042 0.045-0.057 0.089s-0.029 0.242-0.042 0.593s-0.021 0.629-0.021 0.832v0.688c0 0.176-0.013 0.357-0.038 0.5 s-0.077 0.348-0.154 0.48s-0.186 0.253-0.327 0.36s-0.308 0.188-0.501 0.243s-0.417 0.082-0.671 0.1 c-0.297 0-0.574-0.04-0.832-0.12c-0.188-0.059-0.341-0.137-0.46-0.236s-0.21-0.209-0.272-0.331s-0.101-0.24-0.114-0.353 c-0.01-0.07-0.015-0.26-0.015-0.568l0.003-0.562v-0.744c0-0.273-0.005-0.52-0.015-0.738c-0.006-0.086-0.018-0.148-0.035-0.188 c-0.01-0.021-0.035-0.047-0.074-0.076L30.249 54.546z"/>
<path fill="#FFFFFF" d="M35.336 58.402v-0.243c0.158-0.012 0.252-0.022 0.283-0.031s0.056-0.022 0.078-0.041 s0.043-0.048 0.066-0.088s0.089-0.189 0.201-0.447c0.051-0.121 0.148-0.36 0.293-0.718l0.765-1.887l0.258-0.665h0.416l1.31 3.1 l0.182 0.401l0.117 0.27c0.02 0 0 0.1 0.1 0.076s0.038 0 0.1 0.035s0.08 0 0.2 0 c0.029 0 0.1 0 0.1 0.015v0.243l-0.814-0.021l-1.028 0.021v-0.243c0.236-0.01 0.37-0.023 0.4-0.04 s0.045-0.044 0.045-0.083c0-0.049-0.022-0.128-0.067-0.24l-0.251-0.643h-1.511l-0.128 0.351c-0.097 0.269-0.146 0.436-0.146 0.5 c0 0 0 0.1 0 0.099c0.047 0 0.2 0 0.4 0.053v0.243l-0.675-0.021L35.336 58.402z M36.628 56.8 c0.184 0 0.4 0 0.6 0.009c0.225 0 0.427-0.003 0.605-0.009l-0.627-1.514L36.628 56.817z"/>
<path fill="#FFFFFF" d="M40.999 58.402v-0.15c0.051-0.021 0.122-0.06 0.214-0.114c0.041-0.023 0.067-0.043 0.079-0.059 c0.008-0.01 0.013-0.021 0.015-0.032c0.01-0.049 0.019-0.223 0.026-0.523s0.012-0.659 0.012-1.079c0-0.617-0.001-0.998-0.005-1.142 c-0.006-0.367-0.019-0.577-0.036-0.63c-0.008-0.023-0.023-0.041-0.044-0.053c-0.045-0.029-0.195-0.049-0.451-0.059v-0.258 c0.248 0 0.5 0 0.8 0.021c0.355 0 0.692-0.007 1.011-0.021v0.258c-0.221 0.01-0.355 0.027-0.404 0.1 c-0.021 0.012-0.037 0.031-0.047 0.057s-0.019 0.147-0.028 0.361c-0.009 0.215-0.013 0.486-0.013 0.8 c0 0 0 0.3 0 0.846c0.002 0.3 0 0.6 0 0.83s0.002 0.4 0 0.499c0.27 0 0.5 0 0.6 0 c0.297 0 0.556-0.018 0.776-0.053c0.08-0.012 0.128-0.024 0.144-0.038s0.032-0.05 0.05-0.108c0.039-0.148 0.077-0.318 0.114-0.51 h0.243c-0.006 0.055-0.009 0.087-0.009 0.097l-0.073 0.592c-0.016 0.186-0.024 0.297-0.026 0.3 c-0.057 0.016-0.113 0.026-0.17 0.032c-0.119 0.01-0.304 0.015-0.554 0.015c-0.035 0-0.265-0.005-0.688-0.015 c-0.322-0.008-0.547-0.012-0.674-0.012C41.681 58.4 41.4 58.4 41 58.402z"/>
<path fill="#FFFFFF" d="M47.145 54.303v0.258c-0.198 0.006-0.316 0.013-0.354 0.022c-0.038 0.009-0.064 0.02-0.08 0 c-0.016 0.013-0.027 0.029-0.033 0.048c-0.014 0.033-0.023 0.097-0.029 0.19c-0.004 0.051-0.007 0.146-0.009 0.3 c-0.008 0.48-0.012 0.739-0.012 0.776v1.181l0.009 0.536c0 0.2 0 0.3 0 0.393c0.008 0 0 0 0 0.1 s0.048 0 0.1 0.035c0.04 0 0.2 0 0.3 0.019v0.258c-0.318-0.014-0.658-0.021-1.02-0.021 c-0.314 0-0.595 0.007-0.841 0.021v-0.258c0.203-0.008 0.32-0.015 0.352-0.021c0.041-0.008 0.069-0.019 0.083-0.032 s0.024-0.029 0.028-0.047c0.006-0.023 0.014-0.115 0.023-0.275c0.016-0.234 0.023-0.451 0.023-0.65v-1.225 c0-0.389-0.002-0.639-0.006-0.75c-0.01-0.248-0.021-0.403-0.035-0.466c-0.006-0.025-0.015-0.045-0.028-0.059 s-0.036-0.025-0.07-0.034s-0.158-0.017-0.371-0.025v-0.258c0.246 0 0.5 0 0.8 0 C46.489 54.3 46.8 54.3 47.1 54.303z"/>
<path fill="#FFFFFF" d="M49.131 58.402v-0.24c0.234-0.008 0.374-0.023 0.417-0.047s0.074-0.062 0.089-0.117 c0.021-0.084 0.032-0.337 0.032-0.759v-1.755c0-0.479-0.003-0.746-0.009-0.803h-0.419c-0.211 0-0.396 0.007-0.557 0 c-0.064 0.006-0.102 0.014-0.111 0.023c-0.014 0.012-0.025 0.046-0.035 0.103c-0.025 0.137-0.04 0.29-0.044 0.46h-0.243 c-0.008-0.4-0.013-0.626-0.015-0.677c-0.006-0.086-0.016-0.179-0.029-0.278l0.026-0.029c0.092 0 0.2 0 0.3 0 c0.167 0 0.5 0 1 0.009h1.183c0.492 0 0.821-0.003 0.986-0.009c0.09-0.004 0.181-0.011 0.272-0.021l0.029 0 c-0.018 0.119-0.028 0.224-0.032 0.313c-0.002 0.016-0.006 0.229-0.012 0.642H51.68c-0.004-0.152-0.017-0.298-0.038-0.437 c-0.012-0.07-0.024-0.112-0.038-0.126c-0.012-0.01-0.043-0.017-0.094-0.021c-0.16-0.016-0.353-0.023-0.577-0.023h-0.419 c-0.006 0.068-0.009 0.336-0.009 0.803v1.755c0 0.4 0 0.7 0 0.762c0.014 0.1 0 0.1 0.1 0.1 s0.185 0 0.4 0.048v0.24c-0.378-0.018-0.697-0.026-0.957-0.026C49.811 58.4 49.5 58.4 49.1 58.402z"/>
<path fill="#FFFFFF" d="M55.179 56.245l0.369-0.597c0.062-0.107 0.248-0.434 0.556-0.979c0.107-0.188 0.174-0.309 0.202-0.366h0.464 v0.132c-0.237 0.318-0.492 0.692-0.766 1.122c-0.274 0.43-0.443 0.706-0.508 0.829c-0.043 0.084-0.071 0.157-0.085 0.2 c-0.01 0.045-0.015 0.118-0.015 0.22v0.495c0 0.2 0 0.4 0 0.542s0.028 0.2 0 0.205s0.047 0 0.1 0.1 s0.17 0 0.4 0.023v0.258c-0.373-0.014-0.709-0.021-1.009-0.021c-0.292 0-0.589 0.007-0.889 0.021v-0.258 c0.223-0.008 0.353-0.017 0.391-0.026s0.064-0.024 0.079-0.044s0.025-0.078 0.031-0.176c0.01-0.223 0.015-0.412 0.015-0.568v-0.557 c0-0.045-0.037-0.138-0.111-0.278c-0.184-0.336-0.38-0.667-0.589-0.993c-0.17-0.266-0.328-0.479-0.475-0.639 c-0.098-0.105-0.167-0.169-0.208-0.19c-0.025-0.012-0.111-0.018-0.258-0.018v-0.22l0.621-0.123c0.105-0.023 0.214-0.05 0.325-0.079 c0.119 0.1 0.2 0.1 0.3 0.177s0.13 0.1 0.2 0.292c0.143 0.2 0.3 0.5 0.4 0.7 C54.995 55.9 55.1 56.1 55.2 56.245z"/>
<path fill="#FFFFFF" d="M64.083 55.49h-0.234c0-0.062-0.004-0.155-0.012-0.278c-0.006-0.086-0.016-0.159-0.029-0.22 c-0.049-0.059-0.102-0.106-0.158-0.144c-0.126-0.086-0.273-0.153-0.439-0.202c-0.166-0.049-0.353-0.073-0.562-0.073 c-0.488 0-0.879 0.151-1.172 0.454s-0.44 0.719-0.44 1.248c0 0.6 0.2 1 0.5 1.378s0.688 0.5 1.1 0.5 c0.131 0 0.258-0.014 0.382-0.041s0.245-0.067 0.364-0.12c0.006-0.053 0.011-0.154 0.015-0.305s0.006-0.241 0.006-0.272 c0-0.188-0.008-0.299-0.023-0.334c-0.012-0.023-0.038-0.04-0.079-0.05c-0.068-0.02-0.253-0.038-0.556-0.056V56.75l0.875 0 l0.881-0.012v0.193c-0.113 0.023-0.188 0.056-0.223 0.097c-0.018 0.02-0.028 0.073-0.032 0.161c-0.01 0.225-0.015 0.386-0.015 0.5 c0 0.1 0 0.3 0 0.457c-0.363 0.133-0.68 0.227-0.951 0.281s-0.541 0.082-0.81 0.082c-0.439 0-0.828-0.074-1.166-0.223 c-0.236-0.105-0.438-0.241-0.606-0.407s-0.296-0.345-0.384-0.536c-0.139-0.297-0.208-0.627-0.208-0.99 c0-0.307 0.045-0.574 0.136-0.803s0.217-0.428 0.379-0.599s0.346-0.31 0.552-0.416s0.422-0.183 0.647-0.229s0.473-0.069 0.743-0.069 c0.332 0 0.6 0 0.9 0.091s0.509 0.1 0.7 0.199l0.023 0.056C64.166 54.8 64.1 55.1 64.1 55.49z"/>
<path fill="#FFFFFF" d="M65.688 54.546v-0.243l0.952 0.021l0.396-0.007l0.396-0.01l0.108-0.003v0.243 c-0.211 0-0.345 0.019-0.401 0.056c-0.029 0.018-0.049 0.052-0.059 0.103c-0.027 0.121-0.041 0.388-0.041 0.8v0.68l0.003 0.3 c0 0.4 0 0.6 0 0.662c0.018 0.2 0.1 0.3 0.1 0.444s0.188 0.2 0.3 0.272s0.348 0.1 0.6 0.1 c0.271 0 0.488-0.046 0.649-0.139s0.276-0.213 0.344-0.362s0.103-0.431 0.103-0.847v-0.598c0-0.516-0.001-0.83-0.003-0.943 c-0.006-0.246-0.02-0.395-0.041-0.445c-0.014-0.031-0.036-0.055-0.067-0.07c-0.064-0.033-0.205-0.053-0.422-0.059v-0.243 c0.354 0 0.6 0 0.6 0.021c0.018 0 0.044-0.001 0.079-0.003l0.65-0.018v0.243c-0.182 0-0.296 0.015-0.343 0 c-0.023 0.016-0.042 0.045-0.057 0.089s-0.029 0.242-0.042 0.593s-0.021 0.629-0.021 0.832v0.688c0 0.176-0.013 0.357-0.038 0.5 s-0.077 0.348-0.154 0.48s-0.186 0.253-0.327 0.36s-0.308 0.188-0.501 0.243s-0.417 0.082-0.671 0.1 c-0.297 0-0.574-0.04-0.832-0.12c-0.188-0.059-0.341-0.137-0.46-0.236s-0.21-0.209-0.272-0.331s-0.101-0.24-0.114-0.353 c-0.01-0.07-0.015-0.26-0.015-0.568l0.003-0.562v-0.744c0-0.273-0.005-0.52-0.015-0.738c-0.006-0.086-0.018-0.148-0.035-0.188 c-0.01-0.021-0.035-0.047-0.074-0.076L65.688 54.546z"/>
<path fill="#FFFFFF" d="M73.077 54.303v0.258c-0.198 0.006-0.316 0.013-0.354 0.022c-0.038 0.009-0.064 0.02-0.08 0 c-0.016 0.013-0.027 0.029-0.033 0.048c-0.014 0.033-0.023 0.097-0.029 0.19c-0.004 0.051-0.007 0.146-0.009 0.3 c-0.008 0.48-0.012 0.739-0.012 0.776v1.181l0.009 0.536c0 0.2 0 0.3 0 0.393c0.008 0 0 0 0 0.1 s0.048 0 0.1 0.035c0.04 0 0.2 0 0.3 0.019v0.258c-0.318-0.014-0.658-0.021-1.02-0.021 c-0.314 0-0.595 0.007-0.841 0.021v-0.258c0.203-0.008 0.32-0.015 0.352-0.021c0.041-0.008 0.069-0.019 0.083-0.032 s0.024-0.029 0.028-0.047c0.006-0.023 0.014-0.115 0.023-0.275c0.016-0.234 0.023-0.451 0.023-0.65v-1.225 c0-0.389-0.002-0.639-0.006-0.75c-0.01-0.248-0.021-0.403-0.035-0.466c-0.006-0.025-0.015-0.045-0.028-0.059 s-0.036-0.025-0.07-0.034s-0.158-0.017-0.371-0.025v-0.258c0.246 0 0.5 0 0.8 0 C72.421 54.3 72.8 54.3 73.1 54.303z"/>
<path fill="#FFFFFF" d="M75.063 58.402v-0.24c0.234-0.008 0.374-0.023 0.417-0.047s0.074-0.062 0.089-0.117 c0.021-0.084 0.032-0.337 0.032-0.759v-1.755c0-0.479-0.003-0.746-0.009-0.803h-0.419c-0.211 0-0.396 0.007-0.557 0 c-0.064 0.006-0.102 0.014-0.111 0.023c-0.014 0.012-0.025 0.046-0.035 0.103c-0.025 0.137-0.04 0.29-0.044 0.46h-0.243 c-0.008-0.4-0.013-0.626-0.015-0.677c-0.006-0.086-0.016-0.179-0.029-0.278l0.026-0.029c0.092 0 0.2 0 0.3 0 c0.167 0 0.5 0 1 0.009h1.183c0.492 0 0.821-0.003 0.986-0.009c0.09-0.004 0.181-0.011 0.272-0.021l0.029 0 c-0.018 0.119-0.028 0.224-0.032 0.313c-0.002 0.016-0.006 0.229-0.012 0.642h-0.243c-0.004-0.152-0.017-0.298-0.038-0.437 c-0.012-0.07-0.024-0.112-0.038-0.126c-0.012-0.01-0.043-0.017-0.094-0.021c-0.16-0.016-0.353-0.023-0.577-0.023h-0.419 c-0.006 0.068-0.009 0.336-0.009 0.803v1.755c0 0.4 0 0.7 0 0.762c0.014 0.1 0 0.1 0.1 0.1 s0.185 0 0.4 0.048v0.24c-0.378-0.018-0.697-0.026-0.957-0.026C75.743 58.4 75.4 58.4 75.1 58.402z"/>
<path fill="#FFFFFF" d="M78.338 58.402v-0.243c0.158-0.012 0.252-0.022 0.283-0.031s0.056-0.022 0.078-0.041 s0.043-0.048 0.066-0.088s0.089-0.189 0.201-0.447c0.051-0.121 0.148-0.36 0.293-0.718l0.765-1.887l0.258-0.665h0.416l1.31 3.1 l0.182 0.401l0.117 0.27c0.02 0 0 0.1 0.1 0.076s0.038 0 0.1 0.035s0.08 0 0.2 0 c0.029 0 0.1 0 0.1 0.015v0.243l-0.814-0.021l-1.028 0.021v-0.243c0.236-0.01 0.37-0.023 0.4-0.04 s0.045-0.044 0.045-0.083c0-0.049-0.022-0.128-0.067-0.24l-0.251-0.643h-1.511l-0.128 0.351c-0.097 0.269-0.146 0.436-0.146 0.5 c0 0 0 0.1 0 0.099c0.047 0 0.2 0 0.4 0.053v0.243l-0.675-0.021L78.338 58.402z M79.63 56.8 c0.184 0 0.4 0 0.6 0.009c0.225 0 0.427-0.003 0.605-0.009l-0.627-1.514L79.63 56.817z"/>
<path fill="#FFFFFF" d="M83.84 54.543v-0.24c0.045 0 0.2 0 0.5 0.014c0.131 0 0.3 0 0.6 0 c0.205 0 0.381-0.004 0.527-0.013c0.242-0.011 0.442-0.016 0.601-0.016c0.307 0 0.5 0 0.7 0.066s0.282 0.1 0.4 0.3 s0.161 0.3 0.2 0.507c0 0.237-0.073 0.452-0.22 0.646c-0.146 0.194-0.372 0.347-0.677 0.46c0.049 0.1 0.1 0.2 0.2 0.3 c0.062 0.1 0.1 0.1 0.1 0.166c0.011 0 0 0 0 0.055l0.454 0.677c0.121 0.2 0.2 0.3 0.2 0.3 c0.146 0.2 0.2 0.3 0.3 0.343c0.033 0 0.1 0.1 0.1 0.072c0.031 0 0.1 0 0.2 0.023v0.258 c-0.301-0.008-0.519-0.012-0.653-0.012c-0.156 0-0.312 0.004-0.466 0.012c-0.01-0.043-0.033-0.099-0.07-0.167l-0.627-1.034 c-0.18-0.297-0.332-0.53-0.457-0.7c-0.062-0.086-0.123-0.15-0.182-0.193l0.032-0.097c0.234 0 0.411-0.016 0.53-0.072 s0.22-0.156 0.302-0.299c0.082-0.144 0.123-0.305 0.123-0.483c0-0.18-0.043-0.33-0.129-0.449c-0.086-0.119-0.192-0.203-0.319-0.25 c-0.082-0.029-0.229-0.044-0.439-0.044c-0.094 0-0.187 0.008-0.278 0.023c-0.006 0.07-0.012 0.229-0.018 0.5 c-0.012 0.553-0.018 0.923-0.018 1.108c0 0.3 0 0.6 0 0.933c0.008 0.4 0 0.6 0 0.7 c0.006 0.1 0 0.2 0 0.214c0.008 0 0 0 0 0.042s0.046 0 0.1 0.031s0.152 0 0.3 0.018v0.258 c-0.334-0.014-0.672-0.021-1.014-0.021c-0.305 0-0.587 0.007-0.847 0.021v-0.258c0.223-0.008 0.354-0.019 0.396-0.032 c0.023-0.006 0.041-0.016 0.051-0.029s0.019-0.041 0.025-0.082c0.014-0.076 0.023-0.192 0.029-0.346l0.023-0.856V55.71l-0.015-0.619 c-0.004-0.245-0.016-0.391-0.035-0.44c-0.01-0.021-0.024-0.038-0.043-0.05C84.225 54.6 84.1 54.6 83.8 54.543z"/>
<path fill="#FFFFFF" d="M91.691 55.373h-0.246c-0.004-0.227-0.014-0.387-0.029-0.48c-0.061-0.086-0.165-0.162-0.314-0.229 c-0.149-0.066-0.316-0.1-0.501-0.1c-0.265 0-0.47 0.067-0.616 0.201c-0.145 0.134-0.218 0.291-0.218 0.5 c0.002 0.1 0 0.2 0.1 0.314c0.041 0.1 0.1 0.1 0.2 0.191c0.076 0 0.2 0.1 0.3 0.1 c0.113 0 0.3 0.1 0.5 0.088c0.202 0 0.3 0.1 0.4 0.073c0.158 0 0.3 0.1 0.4 0.1 s0.175 0.1 0.2 0.199c0.058 0.1 0.1 0.2 0.1 0.284s0.056 0.2 0.1 0.385c0 0.25-0.052 0.47-0.155 0.7 c-0.078 0.143-0.187 0.273-0.325 0.391s-0.281 0.207-0.428 0.265c-0.234 0.094-0.516 0.141-0.844 0.1 c-0.24 0-0.454-0.022-0.642-0.067s-0.394-0.122-0.618-0.231c0.061-0.223 0.092-0.562 0.094-1.017h0.246 c-0.004 0.1 0 0.3 0 0.526c0.074 0.1 0.2 0.2 0.4 0.32c0.18 0.1 0.4 0.1 0.6 0.1 c0.186 0 0.351-0.033 0.497-0.098c0.146-0.066 0.251-0.156 0.316-0.271c0.065-0.116 0.098-0.247 0.098-0.394 c0-0.123-0.023-0.229-0.069-0.317c-0.046-0.088-0.118-0.158-0.215-0.211s-0.27-0.108-0.516-0.165 c-0.354-0.074-0.586-0.128-0.697-0.161c-0.168-0.051-0.303-0.124-0.406-0.22s-0.179-0.211-0.23-0.347s-0.076-0.282-0.076-0.438 c0-0.219 0.046-0.42 0.138-0.605s0.213-0.328 0.363-0.429s0.32-0.174 0.51-0.218s0.384-0.066 0.583-0.066 c0.207 0 0.4 0 0.6 0.056s0.363 0.1 0.5 0.161l0.023 0.07c-0.027 0.127-0.047 0.251-0.06 0.4 C91.707 55 91.7 55.2 91.7 55.373z"/>
</svg>
